<svg version="1.1" viewBox="0 0 500 500" xml:space="preserve" xmlns="http://www.w3.org/2000/svg">
<path d="m500.9 385.1v-1.2s-202.51-8.7751-246.41-26.575c-113.1-45.6-138.29-182.35-191.84-195.69-40.8-13.3-30.012-10.876-64.177-10.876l2.4238 350.25h500z" fill="#707272" style="fill:#9c9e9e"/>


<rect x="-559" y="-298" width="0" height="0" fill="#707272"/>

<rect x="-34.3" y="135" width="0" height="0" fill="#21B469"/>
<g fill="#21B469" style="fill:#578a1e">
	<polygon points="36.8 140.8 43.3 433.1 56 463.7 68.6 431.9 72.7 140.8 79.6 126.6 73.9 120.5 38.4 120.5 29.1 126.6" style="fill:#578a1e"/>
	<polygon points="36.7 144.1 19 127.2 36.7 110.2 72.1 110.2 89.9 127.2 72.1 144.1" style="fill:#578a1e"/>
</g>





<rect x="152.01" y="112.32" width="81.829" height="65.767" fill="none" style="stroke-width:1.6907"/>

<g transform="translate(28)" style="opacity:.95402"><g transform="matrix(1.6907 0 0 1.6907 -76.571 -76.018)">
	<path d="m122.3 126.2v12.3c0 0.2 0.1 0.3 0.2 0.5 0.8 0.7 1.3 1.5 1.7 2.5 0.2 0.5 0.3 0.9 0.4 1.4 0.1 0.7 0.1 1.4 0.1 2.1-0.1 0.6-0.2 1.2-0.5 1.8-0.4 1-1.1 1.9-1.9 2.6-0.5 0.4-1.1 0.8-1.7 1.1-0.4 0.2-0.8 0.3-1.3 0.4-0.5 0.2-1.1 0.2-1.7 0.2-0.4 0-0.9-0.1-1.3-0.2-0.3-0.1-0.6-0.1-0.9-0.3-0.6-0.2-1.1-0.5-1.6-0.8-0.6-0.4-1.1-0.9-1.6-1.5-0.4-0.5-0.7-1-0.9-1.6-0.4-1-0.5-2-0.4-3.1 0.1-0.6 0.2-1.1 0.4-1.7s0.5-1.2 0.9-1.7c0.3-0.4 0.6-0.8 1-1.1 0.1-0.1 0.1-0.2 0.1-0.3v-0.9-23.4c0-1.1 0.3-2.1 1.1-2.9 0.4-0.5 1-0.9 1.6-1.2 0.8-0.3 1.6-0.4 2.4-0.3 0.6 0.1 1.1 0.3 1.6 0.6 0.9 0.5 1.5 1.3 1.8 2.2 0.1 0.4 0.2 0.7 0.2 1.1v0.5c0.3 3.8 0.3 7.8 0.3 11.7zm-1.9 0.7v-12.5c0-0.6-0.2-1.1-0.5-1.6-0.4-0.6-1-0.9-1.7-1-0.3-0.1-0.7 0-1 0.1-0.4 0.1-0.7 0.3-1 0.7-0.3 0.3-0.5 0.7-0.6 1.1-0.1 0.3-0.1 0.5-0.1 0.8v24.9c0 0.3-0.1 0.5-0.4 0.7-0.5 0.3-0.9 0.7-1.2 1.2-0.4 0.6-0.7 1.2-0.8 1.9-0.1 0.4-0.1 0.8-0.1 1.2 0.1 0.4 0.1 0.8 0.2 1.2 0.2 0.5 0.4 1 0.8 1.4 0.4 0.5 0.9 1 1.5 1.3 0.5 0.3 1.1 0.5 1.7 0.6 0.7 0.1 1.4 0 2-0.2s1.1-0.5 1.6-0.9c0.7-0.6 1.3-1.3 1.6-2.2 0.2-0.5 0.3-1.1 0.3-1.6 0-0.4-0.1-0.8-0.2-1.2-0.1-0.5-0.4-1-0.6-1.5-0.4-0.6-0.9-1.1-1.5-1.5-0.1-0.1-0.2-0.2-0.2-0.3v-0.3c0.2-4 0.2-8.1 0.2-12.3z"/>
	<path d="m128.4 125c0.1 0.3 0 0.6 0 1h-0.3-4.3c-0.3 0-0.3 0-0.3-0.3v-0.5c0-0.2 0-0.2 0.2-0.2h0.1 4.4 0.2z"/>
	<path d="m123.5 131.3v-0.8c0-0.1 0.1-0.2 0.2-0.2h0.5 4c0.2 0 0.2 0 0.2 0.2v0.7c-0.2 0.2-4.6 0.2-4.9 0.1z"/>
	<path d="m126 127.7v1h-0.2-2c-0.2 0-0.3 0-0.3-0.3v-0.5c0-0.2 0-0.2 0.2-0.2h1 1.3z"/>
	<path d="m126 123.3h-2.2c-0.1 0-0.2-0.1-0.2-0.2v-0.7c0.2-0.1 2.1-0.1 2.4 0v0.9z"/>
	<path d="m118.9 132.2v8.2 0.2c0 0.1 0.1 0.2 0.2 0.3 0.6 0.2 1.1 0.6 1.5 1 0.3 0.4 0.5 0.8 0.6 1.2 0.1 0.5 0.2 1.1 0.1 1.6-0.2 0.9-0.7 1.7-1.5 2.2-0.4 0.2-0.8 0.4-1.2 0.5-0.3 0.1-0.6 0.1-0.9 0.1-0.7-0.1-1.3-0.3-1.9-0.7-0.5-0.4-0.8-0.8-1-1.3-0.1-0.3-0.3-0.7-0.3-1 0-0.5 0-0.9 0.1-1.3 0.2-0.5 0.4-0.9 0.7-1.3 0.4-0.4 0.9-0.7 1.4-0.9 0.1 0 0.2-0.1 0.2-0.2v-0.2-16.5c0-0.3 0-0.5 0.2-0.7 0.3-0.4 0.7-0.4 1.1-0.3 0.3 0.1 0.6 0.4 0.7 0.8v0.5 7.8z"/>
</g><text x="151.99706" y="134.88063" font-family="Raleway-Medium" font-size="30.832px" style="font-family:Bahnschrift;stroke-width:1.6907">0</text><text x="151.99706" y="166.7401" font-family="Raleway-Medium" font-size="30.832px" style="font-family:Bahnschrift;stroke-width:1.6907"><tspan style="font-family:Bahnschrift">cm</tspan></text></g><g fill="none">
<rect x="250.9" y="117.2" width="289.8" height="26.1"/>





















<rect x="248.7" y="204.4" width="283.7" height="27.3"/>







































<rect x="248.7" y="389" width="283.7" height="27.3"/>

















<rect x="29.7" y="11.7" width="374.7" height="22.7"/>




























<rect x="29.7" y="35" width="374.7" height="22.7"/>



















</g><text x="257.36728" y="154.19463" style="font-family:sans-serif;font-size:48px;letter-spacing:0px;line-height:1.25;stroke-width:.47912;word-spacing:0px" xml:space="preserve"><tspan x="257.36728" y="154.19463" dy="0 0 0" style="font-family:Bahnschrift;font-size:48px;stroke-width:.47912">${val['temp1']}째C</tspan></text><text x="257.36728" y="245.88147" style="font-family:sans-serif;font-size:48px;letter-spacing:0px;line-height:1.25;stroke-width:.47912;word-spacing:0px" xml:space="preserve"><tspan x="257.36728" y="245.88147" style="font-family:Bahnschrift;font-size:48px;stroke-width:.47912">${val['temp2']}째C</tspan></text><text x="257.36728" y="429.25513" style="font-family:sans-serif;font-size:48px;letter-spacing:0px;line-height:1.25;stroke-width:.47912;word-spacing:0px" xml:space="preserve"><tspan x="257.36728" y="429.25513" style="font-family:Bahnschrift;font-size:48px;stroke-width:.47912">${val['temp4']}째C</tspan></text><text x="257.36728" y="337.5683" style="font-family:sans-serif;font-size:48px;letter-spacing:0px;line-height:1.25;stroke-width:.47912;word-spacing:0px" xml:space="preserve"><tspan x="257.36728" y="337.5683" style="font-family:Bahnschrift;font-size:48px;stroke-width:.47912">${val['temp3']}째C</tspan></text><g transform="translate(28 91.687)" style="opacity:.95402"><g transform="matrix(1.6907 0 0 1.6907 -76.571 -76.018)"><path d="m122.3 126.2v12.3c0 0.2 0.1 0.3 0.2 0.5 0.8 0.7 1.3 1.5 1.7 2.5 0.2 0.5 0.3 0.9 0.4 1.4 0.1 0.7 0.1 1.4 0.1 2.1-0.1 0.6-0.2 1.2-0.5 1.8-0.4 1-1.1 1.9-1.9 2.6-0.5 0.4-1.1 0.8-1.7 1.1-0.4 0.2-0.8 0.3-1.3 0.4-0.5 0.2-1.1 0.2-1.7 0.2-0.4 0-0.9-0.1-1.3-0.2-0.3-0.1-0.6-0.1-0.9-0.3-0.6-0.2-1.1-0.5-1.6-0.8-0.6-0.4-1.1-0.9-1.6-1.5-0.4-0.5-0.7-1-0.9-1.6-0.4-1-0.5-2-0.4-3.1 0.1-0.6 0.2-1.1 0.4-1.7s0.5-1.2 0.9-1.7c0.3-0.4 0.6-0.8 1-1.1 0.1-0.1 0.1-0.2 0.1-0.3v-0.9-23.4c0-1.1 0.3-2.1 1.1-2.9 0.4-0.5 1-0.9 1.6-1.2 0.8-0.3 1.6-0.4 2.4-0.3 0.6 0.1 1.1 0.3 1.6 0.6 0.9 0.5 1.5 1.3 1.8 2.2 0.1 0.4 0.2 0.7 0.2 1.1v0.5c0.3 3.8 0.3 7.8 0.3 11.7zm-1.9 0.7v-12.5c0-0.6-0.2-1.1-0.5-1.6-0.4-0.6-1-0.9-1.7-1-0.3-0.1-0.7 0-1 0.1-0.4 0.1-0.7 0.3-1 0.7-0.3 0.3-0.5 0.7-0.6 1.1-0.1 0.3-0.1 0.5-0.1 0.8v24.9c0 0.3-0.1 0.5-0.4 0.7-0.5 0.3-0.9 0.7-1.2 1.2-0.4 0.6-0.7 1.2-0.8 1.9-0.1 0.4-0.1 0.8-0.1 1.2 0.1 0.4 0.1 0.8 0.2 1.2 0.2 0.5 0.4 1 0.8 1.4 0.4 0.5 0.9 1 1.5 1.3 0.5 0.3 1.1 0.5 1.7 0.6 0.7 0.1 1.4 0 2-0.2s1.1-0.5 1.6-0.9c0.7-0.6 1.3-1.3 1.6-2.2 0.2-0.5 0.3-1.1 0.3-1.6 0-0.4-0.1-0.8-0.2-1.2-0.1-0.5-0.4-1-0.6-1.5-0.4-0.6-0.9-1.1-1.5-1.5-0.1-0.1-0.2-0.2-0.2-0.3v-0.3c0.2-4 0.2-8.1 0.2-12.3z"/><path d="m128.4 125c0.1 0.3 0 0.6 0 1h-0.3-4.3c-0.3 0-0.3 0-0.3-0.3v-0.5c0-0.2 0-0.2 0.2-0.2h0.1 4.4 0.2z"/><path d="m123.5 131.3v-0.8c0-0.1 0.1-0.2 0.2-0.2h0.5 4c0.2 0 0.2 0 0.2 0.2v0.7c-0.2 0.2-4.6 0.2-4.9 0.1z"/><path d="m126 127.7v1h-0.2-2c-0.2 0-0.3 0-0.3-0.3v-0.5c0-0.2 0-0.2 0.2-0.2h1 1.3z"/><path d="m126 123.3h-2.2c-0.1 0-0.2-0.1-0.2-0.2v-0.7c0.2-0.1 2.1-0.1 2.4 0v0.9z"/><path d="m118.9 132.2v8.2 0.2c0 0.1 0.1 0.2 0.2 0.3 0.6 0.2 1.1 0.6 1.5 1 0.3 0.4 0.5 0.8 0.6 1.2 0.1 0.5 0.2 1.1 0.1 1.6-0.2 0.9-0.7 1.7-1.5 2.2-0.4 0.2-0.8 0.4-1.2 0.5-0.3 0.1-0.6 0.1-0.9 0.1-0.7-0.1-1.3-0.3-1.9-0.7-0.5-0.4-0.8-0.8-1-1.3-0.1-0.3-0.3-0.7-0.3-1 0-0.5 0-0.9 0.1-1.3 0.2-0.5 0.4-0.9 0.7-1.3 0.4-0.4 0.9-0.7 1.4-0.9 0.1 0 0.2-0.1 0.2-0.2v-0.2-16.5c0-0.3 0-0.5 0.2-0.7 0.3-0.4 0.7-0.4 1.1-0.3 0.3 0.1 0.6 0.4 0.7 0.8v0.5 7.8z"/></g><text x="151.99706" y="134.88063" font-family="Raleway-Medium" font-size="30.832px" style="font-family:Bahnschrift;stroke-width:1.6907"><tspan style="font-family:Bahnschrift">-5</tspan></text><text x="151.99706" y="166.7401" font-family="Raleway-Medium" font-size="30.832px" style="font-family:Bahnschrift;stroke-width:1.6907"><tspan style="font-family:Bahnschrift">cm</tspan></text></g><g transform="translate(28 275.06)" style="opacity:.95402"><g transform="matrix(1.6907 0 0 1.6907 -76.571 -76.018)"><path d="m122.3 126.2v12.3c0 0.2 0.1 0.3 0.2 0.5 0.8 0.7 1.3 1.5 1.7 2.5 0.2 0.5 0.3 0.9 0.4 1.4 0.1 0.7 0.1 1.4 0.1 2.1-0.1 0.6-0.2 1.2-0.5 1.8-0.4 1-1.1 1.9-1.9 2.6-0.5 0.4-1.1 0.8-1.7 1.1-0.4 0.2-0.8 0.3-1.3 0.4-0.5 0.2-1.1 0.2-1.7 0.2-0.4 0-0.9-0.1-1.3-0.2-0.3-0.1-0.6-0.1-0.9-0.3-0.6-0.2-1.1-0.5-1.6-0.8-0.6-0.4-1.1-0.9-1.6-1.5-0.4-0.5-0.7-1-0.9-1.6-0.4-1-0.5-2-0.4-3.1 0.1-0.6 0.2-1.1 0.4-1.7s0.5-1.2 0.9-1.7c0.3-0.4 0.6-0.8 1-1.1 0.1-0.1 0.1-0.2 0.1-0.3v-0.9-23.4c0-1.1 0.3-2.1 1.1-2.9 0.4-0.5 1-0.9 1.6-1.2 0.8-0.3 1.6-0.4 2.4-0.3 0.6 0.1 1.1 0.3 1.6 0.6 0.9 0.5 1.5 1.3 1.8 2.2 0.1 0.4 0.2 0.7 0.2 1.1v0.5c0.3 3.8 0.3 7.8 0.3 11.7zm-1.9 0.7v-12.5c0-0.6-0.2-1.1-0.5-1.6-0.4-0.6-1-0.9-1.7-1-0.3-0.1-0.7 0-1 0.1-0.4 0.1-0.7 0.3-1 0.7-0.3 0.3-0.5 0.7-0.6 1.1-0.1 0.3-0.1 0.5-0.1 0.8v24.9c0 0.3-0.1 0.5-0.4 0.7-0.5 0.3-0.9 0.7-1.2 1.2-0.4 0.6-0.7 1.2-0.8 1.9-0.1 0.4-0.1 0.8-0.1 1.2 0.1 0.4 0.1 0.8 0.2 1.2 0.2 0.5 0.4 1 0.8 1.4 0.4 0.5 0.9 1 1.5 1.3 0.5 0.3 1.1 0.5 1.7 0.6 0.7 0.1 1.4 0 2-0.2s1.1-0.5 1.6-0.9c0.7-0.6 1.3-1.3 1.6-2.2 0.2-0.5 0.3-1.1 0.3-1.6 0-0.4-0.1-0.8-0.2-1.2-0.1-0.5-0.4-1-0.6-1.5-0.4-0.6-0.9-1.1-1.5-1.5-0.1-0.1-0.2-0.2-0.2-0.3v-0.3c0.2-4 0.2-8.1 0.2-12.3z"/><path d="m128.4 125c0.1 0.3 0 0.6 0 1h-0.3-4.3c-0.3 0-0.3 0-0.3-0.3v-0.5c0-0.2 0-0.2 0.2-0.2h0.1 4.4 0.2z"/><path d="m123.5 131.3v-0.8c0-0.1 0.1-0.2 0.2-0.2h0.5 4c0.2 0 0.2 0 0.2 0.2v0.7c-0.2 0.2-4.6 0.2-4.9 0.1z"/><path d="m126 127.7v1h-0.2-2c-0.2 0-0.3 0-0.3-0.3v-0.5c0-0.2 0-0.2 0.2-0.2h1 1.3z"/><path d="m126 123.3h-2.2c-0.1 0-0.2-0.1-0.2-0.2v-0.7c0.2-0.1 2.1-0.1 2.4 0v0.9z"/><path d="m118.9 132.2v8.2 0.2c0 0.1 0.1 0.2 0.2 0.3 0.6 0.2 1.1 0.6 1.5 1 0.3 0.4 0.5 0.8 0.6 1.2 0.1 0.5 0.2 1.1 0.1 1.6-0.2 0.9-0.7 1.7-1.5 2.2-0.4 0.2-0.8 0.4-1.2 0.5-0.3 0.1-0.6 0.1-0.9 0.1-0.7-0.1-1.3-0.3-1.9-0.7-0.5-0.4-0.8-0.8-1-1.3-0.1-0.3-0.3-0.7-0.3-1 0-0.5 0-0.9 0.1-1.3 0.2-0.5 0.4-0.9 0.7-1.3 0.4-0.4 0.9-0.7 1.4-0.9 0.1 0 0.2-0.1 0.2-0.2v-0.2-16.5c0-0.3 0-0.5 0.2-0.7 0.3-0.4 0.7-0.4 1.1-0.3 0.3 0.1 0.6 0.4 0.7 0.8v0.5 7.8z"/></g><text x="151.99706" y="134.88063" font-family="Raleway-Medium" font-size="30.832px" style="font-family:Bahnschrift;stroke-width:1.6907"><tspan style="font-family:Bahnschrift">-35</tspan></text><text x="151.99706" y="166.7401" font-family="Raleway-Medium" font-size="30.832px" style="font-family:Bahnschrift;stroke-width:1.6907"><tspan style="font-family:Bahnschrift">cm</tspan></text></g><g transform="translate(28 183.37)" style="opacity:.95402"><g transform="matrix(1.6907 0 0 1.6907 -76.571 -76.018)"><path d="m122.3 126.2v12.3c0 0.2 0.1 0.3 0.2 0.5 0.8 0.7 1.3 1.5 1.7 2.5 0.2 0.5 0.3 0.9 0.4 1.4 0.1 0.7 0.1 1.4 0.1 2.1-0.1 0.6-0.2 1.2-0.5 1.8-0.4 1-1.1 1.9-1.9 2.6-0.5 0.4-1.1 0.8-1.7 1.1-0.4 0.2-0.8 0.3-1.3 0.4-0.5 0.2-1.1 0.2-1.7 0.2-0.4 0-0.9-0.1-1.3-0.2-0.3-0.1-0.6-0.1-0.9-0.3-0.6-0.2-1.1-0.5-1.6-0.8-0.6-0.4-1.1-0.9-1.6-1.5-0.4-0.5-0.7-1-0.9-1.6-0.4-1-0.5-2-0.4-3.1 0.1-0.6 0.2-1.1 0.4-1.7s0.5-1.2 0.9-1.7c0.3-0.4 0.6-0.8 1-1.1 0.1-0.1 0.1-0.2 0.1-0.3v-0.9-23.4c0-1.1 0.3-2.1 1.1-2.9 0.4-0.5 1-0.9 1.6-1.2 0.8-0.3 1.6-0.4 2.4-0.3 0.6 0.1 1.1 0.3 1.6 0.6 0.9 0.5 1.5 1.3 1.8 2.2 0.1 0.4 0.2 0.7 0.2 1.1v0.5c0.3 3.8 0.3 7.8 0.3 11.7zm-1.9 0.7v-12.5c0-0.6-0.2-1.1-0.5-1.6-0.4-0.6-1-0.9-1.7-1-0.3-0.1-0.7 0-1 0.1-0.4 0.1-0.7 0.3-1 0.7-0.3 0.3-0.5 0.7-0.6 1.1-0.1 0.3-0.1 0.5-0.1 0.8v24.9c0 0.3-0.1 0.5-0.4 0.7-0.5 0.3-0.9 0.7-1.2 1.2-0.4 0.6-0.7 1.2-0.8 1.9-0.1 0.4-0.1 0.8-0.1 1.2 0.1 0.4 0.1 0.8 0.2 1.2 0.2 0.5 0.4 1 0.8 1.4 0.4 0.5 0.9 1 1.5 1.3 0.5 0.3 1.1 0.5 1.7 0.6 0.7 0.1 1.4 0 2-0.2s1.1-0.5 1.6-0.9c0.7-0.6 1.3-1.3 1.6-2.2 0.2-0.5 0.3-1.1 0.3-1.6 0-0.4-0.1-0.8-0.2-1.2-0.1-0.5-0.4-1-0.6-1.5-0.4-0.6-0.9-1.1-1.5-1.5-0.1-0.1-0.2-0.2-0.2-0.3v-0.3c0.2-4 0.2-8.1 0.2-12.3z"/><path d="m128.4 125c0.1 0.3 0 0.6 0 1h-0.3-4.3c-0.3 0-0.3 0-0.3-0.3v-0.5c0-0.2 0-0.2 0.2-0.2h0.1 4.4 0.2z"/><path d="m123.5 131.3v-0.8c0-0.1 0.1-0.2 0.2-0.2h0.5 4c0.2 0 0.2 0 0.2 0.2v0.7c-0.2 0.2-4.6 0.2-4.9 0.1z"/><path d="m126 127.7v1h-0.2-2c-0.2 0-0.3 0-0.3-0.3v-0.5c0-0.2 0-0.2 0.2-0.2h1 1.3z"/><path d="m126 123.3h-2.2c-0.1 0-0.2-0.1-0.2-0.2v-0.7c0.2-0.1 2.1-0.1 2.4 0v0.9z"/><path d="m118.9 132.2v8.2 0.2c0 0.1 0.1 0.2 0.2 0.3 0.6 0.2 1.1 0.6 1.5 1 0.3 0.4 0.5 0.8 0.6 1.2 0.1 0.5 0.2 1.1 0.1 1.6-0.2 0.9-0.7 1.7-1.5 2.2-0.4 0.2-0.8 0.4-1.2 0.5-0.3 0.1-0.6 0.1-0.9 0.1-0.7-0.1-1.3-0.3-1.9-0.7-0.5-0.4-0.8-0.8-1-1.3-0.1-0.3-0.3-0.7-0.3-1 0-0.5 0-0.9 0.1-1.3 0.2-0.5 0.4-0.9 0.7-1.3 0.4-0.4 0.9-0.7 1.4-0.9 0.1 0 0.2-0.1 0.2-0.2v-0.2-16.5c0-0.3 0-0.5 0.2-0.7 0.3-0.4 0.7-0.4 1.1-0.3 0.3 0.1 0.6 0.4 0.7 0.8v0.5 7.8z"/></g><text x="151.99706" y="134.88063" font-family="Raleway-Medium" font-size="30.832px" style="font-family:Bahnschrift;stroke-width:1.6907"><tspan style="font-family:Bahnschrift">-20</tspan></text><text x="151.99706" y="166.7401" font-family="Raleway-Medium" font-size="30.832px" style="font-family:Bahnschrift;stroke-width:1.6907"><tspan style="font-family:Bahnschrift">cm</tspan></text></g><text style="font-family:sans-serif;font-size:40px;letter-spacing:0px;line-height:1.25;shape-inside:url(#rect2371);white-space:pre;word-spacing:0px" xml:space="preserve"/><text x="59.124599" y="49.005333" style="font-family:sans-serif;font-size:48px;letter-spacing:0px;line-height:1.25;stroke-width:.47912;word-spacing:0px" xml:space="preserve"><tspan x="59.124599" y="49.005333" style="font-family:Bahnschrift;font-size:48px;stroke-width:.47912">${val['Standort']}</tspan></text><text x="60.85368" y="90.961349" style="font-family:sans-serif;font-size:32px;letter-spacing:0px;line-height:1.25;stroke-width:.47912;word-spacing:0px" xml:space="preserve"><tspan x="60.85368" y="90.961349" style="fill:none;font-family:Bahnschrift;font-size:32px;stroke-width:.47912">${val['Sorte']}</tspan></text></svg>
