<?xml version="1.0" encoding="UTF-8" standalone="no"?>
<svg
   xmlns:dc="http://purl.org/dc/elements/1.1/"
   xmlns:cc="http://creativecommons.org/ns#"
   xmlns:rdf="http://www.w3.org/1999/02/22-rdf-syntax-ns#"
   xmlns:svg="http://www.w3.org/2000/svg"
   xmlns="http://www.w3.org/2000/svg"
   xmlns:xlink="http://www.w3.org/1999/xlink"
   xmlns:sodipodi="http://sodipodi.sourceforge.net/DTD/sodipodi-0.dtd"
   xmlns:inkscape="http://www.inkscape.org/namespaces/inkscape"
   version="1.1"
   id="svg1045"
   width="262.30295"
   height="61.48555"
   viewBox="0 0 262.30295 61.48555"
   sodipodi:docname="Logo_rwdraw.svg"
   inkscape:version="1.0.1 (1.0.1+r74)">
  <metadata
     id="metadata1051">
    <rdf:RDF>
      <cc:Work
         rdf:about="">
        <dc:format>image/svg+xml</dc:format>
        <dc:type
           rdf:resource="http://purl.org/dc/dcmitype/StillImage" />
        <dc:title />
      </cc:Work>
    </rdf:RDF>
  </metadata>
  <defs
     id="defs1049">
    <linearGradient
       inkscape:collect="always"
       id="linearGradient978">
      <stop
         style="stop-color:#74b527;stop-opacity:1"
         offset="0"
         id="stop974" />
      <stop
         style="stop-color:#234307;stop-opacity:1"
         offset="1"
         id="stop976" />
    </linearGradient>
    <rect
       x="10.311007"
       y="59.349136"
       width="245.63721"
       height="55.938515"
       id="rect1626" />
    <rect
       x="0.87618643"
       y="46.723244"
       width="310.55801"
       height="88.357239"
       id="rect1620" />
    <linearGradient
       inkscape:collect="always"
       xlink:href="#linearGradient978"
       id="linearGradient980"
       x1="163.39883"
       y1="54.078396"
       x2="164.13733"
       y2="114.98973"
       gradientUnits="userSpaceOnUse" />
    <linearGradient
       inkscape:collect="always"
       xlink:href="#linearGradient978"
       id="linearGradient982"
       gradientUnits="userSpaceOnUse"
       x1="163.39883"
       y1="54.078396"
       x2="164.13733"
       y2="114.98973" />
    <linearGradient
       inkscape:collect="always"
       xlink:href="#linearGradient978"
       id="linearGradient984"
       gradientUnits="userSpaceOnUse"
       x1="163.39883"
       y1="54.078396"
       x2="164.13733"
       y2="114.98973" />
    <linearGradient
       inkscape:collect="always"
       xlink:href="#linearGradient978"
       id="linearGradient986"
       gradientUnits="userSpaceOnUse"
       x1="163.39883"
       y1="54.078396"
       x2="164.13733"
       y2="114.98973" />
    <linearGradient
       inkscape:collect="always"
       xlink:href="#linearGradient978"
       id="linearGradient988"
       gradientUnits="userSpaceOnUse"
       x1="163.39883"
       y1="54.078396"
       x2="164.13733"
       y2="114.98973" />
    <linearGradient
       inkscape:collect="always"
       xlink:href="#linearGradient978"
       id="linearGradient990"
       gradientUnits="userSpaceOnUse"
       x1="163.39883"
       y1="54.078396"
       x2="164.13733"
       y2="114.98973" />
    <linearGradient
       inkscape:collect="always"
       xlink:href="#linearGradient978"
       id="linearGradient992"
       gradientUnits="userSpaceOnUse"
       x1="163.39883"
       y1="54.078396"
       x2="164.13733"
       y2="114.98973" />
    <linearGradient
       inkscape:collect="always"
       xlink:href="#linearGradient978"
       id="linearGradient994"
       gradientUnits="userSpaceOnUse"
       x1="163.39883"
       y1="54.078396"
       x2="164.13733"
       y2="114.98973" />
  </defs>
  <sodipodi:namedview
     pagecolor="#ffffff"
     bordercolor="#666666"
     borderopacity="1"
     objecttolerance="10"
     gridtolerance="10"
     guidetolerance="10"
     inkscape:pageopacity="0"
     inkscape:pageshadow="2"
     inkscape:window-width="1208"
     inkscape:window-height="656"
     id="namedview1047"
     showgrid="false"
     inkscape:zoom="1.4902503"
     inkscape:cx="134.93831"
     inkscape:cy="68.817601"
     inkscape:window-x="72"
     inkscape:window-y="27"
     inkscape:window-maximized="1"
     inkscape:current-layer="g972"
     inkscape:document-rotation="0"
     fit-margin-top="0"
     fit-margin-left="0"
     fit-margin-right="0"
     fit-margin-bottom="0" />
  <g
     inkscape:groupmode="layer"
     inkscape:label="Image"
     id="g1053"
     transform="translate(-29.551024,-53.705871)">
    <g
       id="g972"
       style="fill:url(#linearGradient980);fill-opacity:1">
      <g
         id="text1618"
         style="font-size:40px;line-height:1.25;font-family:sans-serif;letter-spacing:0px;word-spacing:0px;white-space:pre;shape-inside:url(#rect1620);fill:url(#linearGradient982);fill-opacity:1;stroke:none" />
      <g
         aria-label=" sp    rgis"
         transform="matrix(1.6239603,0,0,1.6059274,32.984831,-54.034697)"
         id="text1624"
         style="font-size:40px;line-height:1.25;font-family:sans-serif;letter-spacing:-1.29418px;word-spacing:0px;white-space:pre;shape-inside:url(#rect1626);fill:url(#linearGradient984);fill-opacity:1;stroke:none">
        <path
           d="m 28.976357,96.776867 q -2.64,0 -5,-0.84 -2.36,-0.88 -4.04,-2.6 l 1.64,-2.96 q 1.8,1.6 3.6,2.32 1.84,0.72 3.64,0.72 1.84,0 3,-0.68 1.16,-0.72 1.16,-2.08 0,-1 -0.6,-1.48 -0.6,-0.48 -1.76,-0.84 -1.12,-0.36 -2.72,-0.8 -2.24,-0.68 -3.76,-1.4 -1.52,-0.76 -2.28,-1.84 -0.76,-1.08 -0.76,-2.76 0,-2.04 1.04,-3.48 1.04,-1.44 2.88,-2.2 1.88,-0.76 4.32,-0.76 2.28,0 4.2,0.72 1.96,0.68 3.44,2.16 l -1.88,2.92 q -1.4,-1.28 -2.88,-1.88 -1.44,-0.6 -3.12,-0.6 -0.96,0 -1.84,0.24 -0.88,0.2 -1.48,0.8 -0.56,0.56 -0.56,1.6 0,0.84 0.48,1.36 0.48,0.52 1.44,0.88 0.96,0.36 2.36,0.8 2.44,0.72 4.16,1.44 1.72,0.68 2.64,1.8 0.96,1.08 0.96,3 0,3.04 -2.28,4.76 -2.24,1.68 -6,1.68 z"
           style="font-style:normal;font-variant:normal;font-weight:600;font-stretch:normal;font-family:Raleway;-inkscape-font-specification:'Raleway Semi-Bold';fill:url(#linearGradient984);fill-opacity:1;stroke:none"
           id="path858" />
        <path
           d="m 51.762146,96.776867 q -2.52,0 -4.44,-1.2 -1.92,-1.2 -3.04,-3.12 v 12.440003 h -4.4 V 75.456867 h 3.88 v 3.76 q 1.2,-1.88 3.12,-3 1.92,-1.12 4.28,-1.12 2.16,0 3.96,0.88 1.8,0.84 3.12,2.36 1.32,1.52 2.04,3.48 0.76,1.92 0.76,4.08 0,3 -1.2,5.48 -1.16,2.48 -3.28,3.96 -2.08,1.44 -4.8,1.44 z m -1.44,-3.76 q 1.4,0 2.52,-0.6 1.16,-0.6 1.96,-1.6 0.84,-1 1.28,-2.28 0.44,-1.28 0.44,-2.64 0,-1.44 -0.48,-2.72 -0.48,-1.28 -1.4,-2.24 -0.88,-0.96 -2.08,-1.52 -1.16,-0.56 -2.56,-0.56 -0.84,0 -1.76,0.32 -0.92,0.32 -1.72,0.88 -0.8,0.56 -1.4,1.32 -0.6,0.76 -0.84,1.6 v 5.48 q 0.56,1.28 1.48,2.32 0.92,1 2.12,1.64 1.2,0.6 2.44,0.6 z"
           style="font-style:normal;font-variant:normal;font-weight:600;font-stretch:normal;font-family:Raleway;-inkscape-font-specification:'Raleway Semi-Bold';fill:url(#linearGradient984);fill-opacity:1;stroke:none"
           id="path860" />
        <path
           d="m 109.81114,79.256867 q -2.56,0.04 -4.56,1.16 -1.96,1.12 -2.8,3.16 v 12.8 h -4.4 v -20.92 h 4.08 v 4.68 q 1.08,-2.16 2.84,-3.44 1.76,-1.32 3.72,-1.44 0.4,0 0.64,0 0.28,0 0.48,0.04 z"
           style="font-style:normal;font-variant:normal;font-weight:600;font-stretch:normal;font-family:Raleway;-inkscape-font-specification:'Raleway Semi-Bold';fill:url(#linearGradient984);fill-opacity:1;stroke:none"
           id="path862" />
        <path
           d="m 119.71454,96.576867 q -2.12,0 -3.88,-0.84 -1.76,-0.88 -3.04,-2.36 -1.24,-1.48 -1.96,-3.4 -0.68,-1.92 -0.68,-4.04 0,-2.24 0.72,-4.2 0.72,-1.96 2,-3.44 1.32,-1.52 3.08,-2.36 1.76,-0.84 3.92,-0.84 2.52,0 4.4,1.2 1.92,1.2 3.16,3.12 v -3.96 h 3.88 v 20.32 q 0,3.04 -1.48,5.160003 -1.44,2.12 -3.96,3.24 -2.52,1.12 -5.68,1.12 -3.48,0 -5.76,-1.2 -2.28,-1.2 -3.88,-3.28 l 2.48,-2.320003 q 1.2,1.680003 3.08,2.560003 1.92,0.88 4.08,0.88 1.8,0 3.32,-0.68 1.56,-0.64 2.48,-2.040003 0.92,-1.36 0.92,-3.44 v -3.2 q -1.12,1.88 -3.08,2.96 -1.96,1.04 -4.12,1.04 z m 1.44,-3.56 q 1,0 1.92,-0.32 0.92,-0.36 1.68,-0.92 0.8,-0.6 1.36,-1.32 0.56,-0.76 0.8,-1.6 v -5.48 q -0.52,-1.36 -1.48,-2.36 -0.96,-1.04 -2.16,-1.6 -1.2,-0.56 -2.44,-0.56 -1.44,0 -2.6,0.64 -1.12,0.6 -1.92,1.64 -0.8,1 -1.24,2.28 -0.44,1.28 -0.44,2.64 0,1.44 0.48,2.68 0.52,1.24 1.4,2.24 0.88,0.96 2.08,1.52 1.2,0.52 2.56,0.52 z"
           style="font-style:normal;font-variant:normal;font-weight:600;font-stretch:normal;font-family:Raleway;-inkscape-font-specification:'Raleway Semi-Bold';fill:url(#linearGradient984);fill-opacity:1;stroke:none"
           id="path864" />
        <path
           d="m 135.30035,96.376867 v -20.92 h 4.4 v 20.92 z m 0,-24.36 v -4.84 h 4.4 v 4.84 z"
           style="font-style:normal;font-variant:normal;font-weight:600;font-stretch:normal;font-family:Raleway;-inkscape-font-specification:'Raleway Semi-Bold';fill:url(#linearGradient984);fill-opacity:1;stroke:none"
           id="path866" />
        <path
           d="m 151.12611,96.776867 q -2.64,0 -5,-0.84 -2.36,-0.88 -4.04,-2.6 l 1.64,-2.96 q 1.8,1.6 3.6,2.32 1.84,0.72 3.64,0.72 1.84,0 3,-0.68 1.16,-0.72 1.16,-2.08 0,-1 -0.6,-1.48 -0.6,-0.48 -1.76,-0.84 -1.12,-0.36 -2.72,-0.8 -2.24,-0.68 -3.76,-1.4 -1.52,-0.76 -2.28,-1.84 -0.76,-1.08 -0.76,-2.76 0,-2.04 1.04,-3.48 1.04,-1.44 2.88,-2.2 1.88,-0.76 4.32,-0.76 2.28,0 4.2,0.72 1.96,0.68 3.44,2.16 l -1.88,2.92 q -1.4,-1.28 -2.88,-1.88 -1.44,-0.6 -3.12,-0.6 -0.96,0 -1.84,0.24 -0.88,0.2 -1.48,0.8 -0.56,0.56 -0.56,1.6 0,0.84 0.48,1.36 0.48,0.52 1.44,0.88 0.96,0.36 2.36,0.8 2.44,0.72 4.16,1.44 1.72,0.68 2.64,1.8 0.96,1.08 0.96,3 0,3.04 -2.28,4.76 -2.24,1.68 -6,1.68 z"
           style="font-style:normal;font-variant:normal;font-weight:600;font-stretch:normal;font-family:Raleway;-inkscape-font-specification:'Raleway Semi-Bold';fill:url(#linearGradient984);fill-opacity:1;stroke:none"
           id="path868" />
      </g>
      <g
         aria-label="a"
         id="text902"
         style="font-style:normal;font-variant:normal;font-weight:normal;font-stretch:normal;font-size:58.7682px;line-height:1.25;font-family:ClementePDak;-inkscape-font-specification:ClementePDak;letter-spacing:0px;word-spacing:0px;fill:url(#linearGradient986);fill-opacity:1;stroke:none;stroke-width:1.4692">
        <path
           d="m 54.527509,79.676743 q 0,-1.2929 -0.822755,-2.350728 -0.763987,-1.057828 -1.939351,-1.763046 -1.175364,-0.763987 -2.585801,-1.175364 -1.351668,-0.411377 -2.527032,-0.411377 -2.585801,0 -4.407615,0.822754 -1.763046,0.822755 -2.879642,2.233192 -1.116596,1.410437 -1.64551,3.349787 -0.470145,1.880583 -0.470145,4.055006 0,4.407615 2.174423,7.169721 2.233192,2.762105 6.934648,2.762105 1.410437,0 2.820873,-0.411377 1.469205,-0.470146 2.644569,-1.292901 1.234133,-0.822755 1.939351,-1.998119 0.763987,-1.234132 0.763987,-2.762105 z m 0,19.687347 v -3.055946 q -1.704278,1.821814 -4.172543,2.820873 -2.468264,0.999063 -5.465442,0.999063 -3.349788,0 -6.170661,-1.175367 -2.820874,-1.175364 -4.877761,-3.232251 -1.998119,-2.115656 -3.173483,-4.995297 -1.116595,-2.879642 -1.116595,-6.288198 0,-3.467324 1.116595,-6.405734 1.116596,-2.997178 3.173483,-5.171601 2.056887,-2.174424 4.936529,-3.408556 2.879642,-1.234132 6.405734,-1.234132 2.762105,0 5.171601,0.881523 2.409497,0.881523 4.172543,2.585801 v -2.703337 h 7.698634 V 99.36409 Z"
           style="fill:url(#linearGradient986);fill-opacity:1;stroke:none;stroke-width:1.4692"
           id="path871" />
      </g>
      <g
         aria-label="a"
         id="text902-3"
         style="font-style:normal;font-variant:normal;font-weight:normal;font-stretch:normal;font-size:58.7682px;line-height:1.25;font-family:ClementePDak;-inkscape-font-specification:ClementePDak;letter-spacing:0px;word-spacing:0px;fill:url(#linearGradient988);fill-opacity:1;stroke:none;stroke-width:1.4692">
        <path
           d="m 169.0029,79.629342 q 0,-1.292901 -0.82276,-2.350728 -0.76398,-1.057828 -1.93935,-1.763046 -1.17536,-0.763987 -2.5858,-1.175364 -1.35167,-0.411378 -2.52703,-0.411378 -2.5858,0 -4.40762,0.822755 -1.76304,0.822755 -2.87964,2.233192 -1.11659,1.410436 -1.64551,3.349787 -0.47014,1.880582 -0.47014,4.055006 0,4.407615 2.17442,7.16972 2.23319,2.762106 6.93465,2.762106 1.41044,0 2.82087,-0.411378 1.46921,-0.470145 2.64457,-1.2929 1.23413,-0.822755 1.93935,-1.998119 0.76399,-1.234132 0.76399,-2.762105 z m 0,19.687347 v -3.055947 q -1.70428,1.821814 -4.17254,2.820874 -2.46827,0.999064 -5.46545,0.999064 -3.34978,0 -6.17066,-1.175369 -2.82087,-1.175364 -4.87776,-3.232251 -1.99812,-2.115655 -3.17348,-4.995297 -1.1166,-2.879642 -1.1166,-6.288197 0,-3.467324 1.1166,-6.405734 1.11659,-2.997178 3.17348,-5.171602 2.05689,-2.174423 4.93653,-3.408555 2.87964,-1.234132 6.40573,-1.234132 2.76211,0 5.17161,0.881523 2.40949,0.881523 4.17254,2.5858 v -2.703337 h 7.69863 v 30.38316 z"
           style="fill:url(#linearGradient988);fill-opacity:1;stroke:none;stroke-width:1.4692"
           id="path874" />
      </g>
      <path
         id="path922"
         style="opacity:0.984512;fill:url(#linearGradient990);fill-opacity:1;stroke:none;stroke-width:4.92546;stroke-linejoin:round;stroke-opacity:0"
         d="m 172.50143,79.108139 a 6.4794612,6.5881534 0 0 1 -6.47946,6.588153 6.4794612,6.5881534 0 0 1 -6.47946,-6.588153 6.4794612,6.5881534 0 0 1 6.47946,-6.588153 6.4794612,6.5881534 0 0 1 6.47946,6.588153 z" />
      <path
         style="fill:url(#linearGradient992);fill-opacity:1;stroke:none;stroke-width:1px;stroke-linecap:butt;stroke-linejoin:miter;stroke-opacity:1"
         d="m 186.43257,72.316161 c -19.03626,-37.494447 -49.6359,-8.871304 -51.43384,4.041296 3.86906,-1.143988 24.87219,-34.605472 51.43384,-4.041296 z"
         id="path924"
         sodipodi:nodetypes="ccc" />
      <path
         style="fill:url(#linearGradient994);fill-opacity:1;stroke:none;stroke-width:1px;stroke-linecap:butt;stroke-linejoin:miter;stroke-opacity:1"
         d="m 135.03578,95.949659 c 18.34501,34.437341 49.5833,14.376681 51.81314,3.124414 -3.42219,0.52231 -24.20022,26.262357 -51.81314,-3.124414 z"
         id="path924-7"
         sodipodi:nodetypes="ccc" />
    </g>
  </g>
</svg>
